<mxfile host="app.diagrams.net" modified="2022-06-21T05:17:24.625Z" agent="5.0 (Macintosh; Intel Mac OS X 10_15_7) AppleWebKit/537.36 (KHTML, like Gecko) Chrome/102.0.0.0 Safari/537.36" etag="dQeml7h4G7Km2nkgh3Md" version="20.0.1" type="github">
  <diagram id="C5RBs43oDa-KdzZeNtuy" name="Page-1">
    <mxGraphModel dx="1395" dy="762" grid="1" gridSize="10" guides="1" tooltips="1" connect="1" arrows="1" fold="1" page="1" pageScale="1" pageWidth="827" pageHeight="1169" math="0" shadow="0">
      <root>
        <mxCell id="WIyWlLk6GJQsqaUBKTNV-0" />
        <mxCell id="WIyWlLk6GJQsqaUBKTNV-1" parent="WIyWlLk6GJQsqaUBKTNV-0" />
        <mxCell id="7j4fDjFhmviyfLZyXL8e-0" value="Game" style="swimlane;fontStyle=1;align=center;verticalAlign=top;childLayout=stackLayout;horizontal=1;startSize=26;horizontalStack=0;resizeParent=1;resizeParentMax=0;resizeLast=0;collapsible=1;marginBottom=0;" vertex="1" parent="WIyWlLk6GJQsqaUBKTNV-1">
          <mxGeometry x="200" y="310" width="160" height="94" as="geometry" />
        </mxCell>
        <mxCell id="7j4fDjFhmviyfLZyXL8e-1" value="+ Team1: Team&#xa;+ Team2: Team" style="text;strokeColor=none;fillColor=none;align=left;verticalAlign=top;spacingLeft=4;spacingRight=4;overflow=hidden;rotatable=0;points=[[0,0.5],[1,0.5]];portConstraint=eastwest;" vertex="1" parent="7j4fDjFhmviyfLZyXL8e-0">
          <mxGeometry y="26" width="160" height="34" as="geometry" />
        </mxCell>
        <mxCell id="7j4fDjFhmviyfLZyXL8e-2" value="" style="line;strokeWidth=1;fillColor=none;align=left;verticalAlign=middle;spacingTop=-1;spacingLeft=3;spacingRight=3;rotatable=0;labelPosition=right;points=[];portConstraint=eastwest;" vertex="1" parent="7j4fDjFhmviyfLZyXL8e-0">
          <mxGeometry y="60" width="160" height="8" as="geometry" />
        </mxCell>
        <mxCell id="7j4fDjFhmviyfLZyXL8e-3" value="+ method(type): type" style="text;strokeColor=none;fillColor=none;align=left;verticalAlign=top;spacingLeft=4;spacingRight=4;overflow=hidden;rotatable=0;points=[[0,0.5],[1,0.5]];portConstraint=eastwest;" vertex="1" parent="7j4fDjFhmviyfLZyXL8e-0">
          <mxGeometry y="68" width="160" height="26" as="geometry" />
        </mxCell>
        <mxCell id="7j4fDjFhmviyfLZyXL8e-4" value="Team" style="swimlane;fontStyle=1;align=center;verticalAlign=top;childLayout=stackLayout;horizontal=1;startSize=26;horizontalStack=0;resizeParent=1;resizeParentMax=0;resizeLast=0;collapsible=1;marginBottom=0;" vertex="1" parent="WIyWlLk6GJQsqaUBKTNV-1">
          <mxGeometry x="200" y="490" width="160" height="94" as="geometry" />
        </mxCell>
        <mxCell id="7j4fDjFhmviyfLZyXL8e-5" value="+ TeamName: string&#xa;+ Roster: Roster" style="text;strokeColor=none;fillColor=none;align=left;verticalAlign=top;spacingLeft=4;spacingRight=4;overflow=hidden;rotatable=0;points=[[0,0.5],[1,0.5]];portConstraint=eastwest;" vertex="1" parent="7j4fDjFhmviyfLZyXL8e-4">
          <mxGeometry y="26" width="160" height="34" as="geometry" />
        </mxCell>
        <mxCell id="7j4fDjFhmviyfLZyXL8e-6" value="" style="line;strokeWidth=1;fillColor=none;align=left;verticalAlign=middle;spacingTop=-1;spacingLeft=3;spacingRight=3;rotatable=0;labelPosition=right;points=[];portConstraint=eastwest;" vertex="1" parent="7j4fDjFhmviyfLZyXL8e-4">
          <mxGeometry y="60" width="160" height="8" as="geometry" />
        </mxCell>
        <mxCell id="7j4fDjFhmviyfLZyXL8e-7" value="+ method(type): type" style="text;strokeColor=none;fillColor=none;align=left;verticalAlign=top;spacingLeft=4;spacingRight=4;overflow=hidden;rotatable=0;points=[[0,0.5],[1,0.5]];portConstraint=eastwest;" vertex="1" parent="7j4fDjFhmviyfLZyXL8e-4">
          <mxGeometry y="68" width="160" height="26" as="geometry" />
        </mxCell>
        <mxCell id="7j4fDjFhmviyfLZyXL8e-8" value="Roster" style="swimlane;fontStyle=1;align=center;verticalAlign=top;childLayout=stackLayout;horizontal=1;startSize=26;horizontalStack=0;resizeParent=1;resizeParentMax=0;resizeLast=0;collapsible=1;marginBottom=0;" vertex="1" parent="WIyWlLk6GJQsqaUBKTNV-1">
          <mxGeometry x="200" y="670" width="160" height="94" as="geometry" />
        </mxCell>
        <mxCell id="7j4fDjFhmviyfLZyXL8e-9" value="+ Athlete: Player&#xa;+ Count: int" style="text;strokeColor=none;fillColor=none;align=left;verticalAlign=top;spacingLeft=4;spacingRight=4;overflow=hidden;rotatable=0;points=[[0,0.5],[1,0.5]];portConstraint=eastwest;" vertex="1" parent="7j4fDjFhmviyfLZyXL8e-8">
          <mxGeometry y="26" width="160" height="34" as="geometry" />
        </mxCell>
        <mxCell id="7j4fDjFhmviyfLZyXL8e-10" value="" style="line;strokeWidth=1;fillColor=none;align=left;verticalAlign=middle;spacingTop=-1;spacingLeft=3;spacingRight=3;rotatable=0;labelPosition=right;points=[];portConstraint=eastwest;" vertex="1" parent="7j4fDjFhmviyfLZyXL8e-8">
          <mxGeometry y="60" width="160" height="8" as="geometry" />
        </mxCell>
        <mxCell id="7j4fDjFhmviyfLZyXL8e-11" value="+ method(type): type" style="text;strokeColor=none;fillColor=none;align=left;verticalAlign=top;spacingLeft=4;spacingRight=4;overflow=hidden;rotatable=0;points=[[0,0.5],[1,0.5]];portConstraint=eastwest;" vertex="1" parent="7j4fDjFhmviyfLZyXL8e-8">
          <mxGeometry y="68" width="160" height="26" as="geometry" />
        </mxCell>
        <mxCell id="7j4fDjFhmviyfLZyXL8e-12" value="Player" style="swimlane;fontStyle=1;align=center;verticalAlign=top;childLayout=stackLayout;horizontal=1;startSize=26;horizontalStack=0;resizeParent=1;resizeParentMax=0;resizeLast=0;collapsible=1;marginBottom=0;" vertex="1" parent="WIyWlLk6GJQsqaUBKTNV-1">
          <mxGeometry x="430" y="660" width="160" height="114" as="geometry" />
        </mxCell>
        <mxCell id="7j4fDjFhmviyfLZyXL8e-13" value="+PlayerStats: Stats&#xa;+Number: int&#xa;+Name: string" style="text;strokeColor=none;fillColor=none;align=left;verticalAlign=top;spacingLeft=4;spacingRight=4;overflow=hidden;rotatable=0;points=[[0,0.5],[1,0.5]];portConstraint=eastwest;" vertex="1" parent="7j4fDjFhmviyfLZyXL8e-12">
          <mxGeometry y="26" width="160" height="54" as="geometry" />
        </mxCell>
        <mxCell id="7j4fDjFhmviyfLZyXL8e-14" value="" style="line;strokeWidth=1;fillColor=none;align=left;verticalAlign=middle;spacingTop=-1;spacingLeft=3;spacingRight=3;rotatable=0;labelPosition=right;points=[];portConstraint=eastwest;" vertex="1" parent="7j4fDjFhmviyfLZyXL8e-12">
          <mxGeometry y="80" width="160" height="8" as="geometry" />
        </mxCell>
        <mxCell id="7j4fDjFhmviyfLZyXL8e-15" value="+ method(type): type" style="text;strokeColor=none;fillColor=none;align=left;verticalAlign=top;spacingLeft=4;spacingRight=4;overflow=hidden;rotatable=0;points=[[0,0.5],[1,0.5]];portConstraint=eastwest;" vertex="1" parent="7j4fDjFhmviyfLZyXL8e-12">
          <mxGeometry y="88" width="160" height="26" as="geometry" />
        </mxCell>
        <mxCell id="7j4fDjFhmviyfLZyXL8e-16" value="Stats" style="swimlane;fontStyle=1;align=center;verticalAlign=top;childLayout=stackLayout;horizontal=1;startSize=26;horizontalStack=0;resizeParent=1;resizeParentMax=0;resizeLast=0;collapsible=1;marginBottom=0;" vertex="1" parent="WIyWlLk6GJQsqaUBKTNV-1">
          <mxGeometry x="440" y="100" width="170" height="420" as="geometry" />
        </mxCell>
        <mxCell id="7j4fDjFhmviyfLZyXL8e-17" value="+2ptmade: int&#xa;+2ptmiss: int&#xa;+2ptperc: float&#xa;+3ptmade: int&#xa;+3ptmiss: int&#xa;+3ptperc: float&#xa;+FTmade: int&#xa;+FTmiss: int&#xa;+FTperc: float&#xa;+offensivereb: int&#xa;+deffensivereb: int&#xa;+rebound: int&#xa;+assist: int&#xa;+turnover: int&#xa;+foul: int&#xa;+points: int&#xa;+FGmade: int&#xa;+FGmiss: int&#xa;+FGperc: int" style="text;strokeColor=none;fillColor=none;align=left;verticalAlign=top;spacingLeft=4;spacingRight=4;overflow=hidden;rotatable=0;points=[[0,0.5],[1,0.5]];portConstraint=eastwest;" vertex="1" parent="7j4fDjFhmviyfLZyXL8e-16">
          <mxGeometry y="26" width="170" height="274" as="geometry" />
        </mxCell>
        <mxCell id="7j4fDjFhmviyfLZyXL8e-18" value="" style="line;strokeWidth=1;fillColor=none;align=left;verticalAlign=middle;spacingTop=-1;spacingLeft=3;spacingRight=3;rotatable=0;labelPosition=right;points=[];portConstraint=eastwest;" vertex="1" parent="7j4fDjFhmviyfLZyXL8e-16">
          <mxGeometry y="300" width="170" height="8" as="geometry" />
        </mxCell>
        <mxCell id="7j4fDjFhmviyfLZyXL8e-19" value="+ calcpoints(): int&#xa;+ calc2ptperc(): int&#xa;+ calc3ptperc(): int&#xa;+ calcftperc(): int&#xa;+ calcfgmade(): int&#xa;+ calcfgmiss(): int&#xa;+ calcfgperc(): int" style="text;strokeColor=none;fillColor=none;align=left;verticalAlign=top;spacingLeft=4;spacingRight=4;overflow=hidden;rotatable=0;points=[[0,0.5],[1,0.5]];portConstraint=eastwest;" vertex="1" parent="7j4fDjFhmviyfLZyXL8e-16">
          <mxGeometry y="308" width="170" height="112" as="geometry" />
        </mxCell>
        <mxCell id="7j4fDjFhmviyfLZyXL8e-20" value="2" style="endArrow=open;html=1;endSize=12;startArrow=diamondThin;startSize=14;startFill=0;edgeStyle=orthogonalEdgeStyle;align=left;verticalAlign=bottom;rounded=0;exitX=0.5;exitY=1;exitDx=0;exitDy=0;entryX=0.5;entryY=0;entryDx=0;entryDy=0;" edge="1" parent="WIyWlLk6GJQsqaUBKTNV-1" source="7j4fDjFhmviyfLZyXL8e-0" target="7j4fDjFhmviyfLZyXL8e-4">
          <mxGeometry x="0.7674" y="10" relative="1" as="geometry">
            <mxPoint x="350" y="670" as="sourcePoint" />
            <mxPoint x="510" y="670" as="targetPoint" />
            <mxPoint as="offset" />
          </mxGeometry>
        </mxCell>
        <mxCell id="7j4fDjFhmviyfLZyXL8e-21" value="1" style="edgeLabel;html=1;align=center;verticalAlign=middle;resizable=0;points=[];" vertex="1" connectable="0" parent="7j4fDjFhmviyfLZyXL8e-20">
          <mxGeometry x="-0.7171" y="2" relative="1" as="geometry">
            <mxPoint x="8" as="offset" />
          </mxGeometry>
        </mxCell>
        <mxCell id="7j4fDjFhmviyfLZyXL8e-25" value="1" style="endArrow=open;html=1;endSize=12;startArrow=diamondThin;startSize=14;startFill=0;edgeStyle=orthogonalEdgeStyle;align=left;verticalAlign=bottom;rounded=0;exitX=0.5;exitY=1;exitDx=0;exitDy=0;entryX=0.5;entryY=0;entryDx=0;entryDy=0;" edge="1" parent="WIyWlLk6GJQsqaUBKTNV-1">
          <mxGeometry x="0.7674" y="10" relative="1" as="geometry">
            <mxPoint x="279.67" y="584" as="sourcePoint" />
            <mxPoint x="279.67" y="670" as="targetPoint" />
            <mxPoint as="offset" />
          </mxGeometry>
        </mxCell>
        <mxCell id="7j4fDjFhmviyfLZyXL8e-26" value="1" style="edgeLabel;html=1;align=center;verticalAlign=middle;resizable=0;points=[];" vertex="1" connectable="0" parent="7j4fDjFhmviyfLZyXL8e-25">
          <mxGeometry x="-0.7171" y="2" relative="1" as="geometry">
            <mxPoint x="8" as="offset" />
          </mxGeometry>
        </mxCell>
        <mxCell id="7j4fDjFhmviyfLZyXL8e-27" value="many" style="endArrow=open;html=1;endSize=12;startArrow=diamondThin;startSize=14;startFill=0;edgeStyle=orthogonalEdgeStyle;align=left;verticalAlign=bottom;rounded=0;exitX=1.006;exitY=0.706;exitDx=0;exitDy=0;entryX=-0.015;entryY=0.63;entryDx=0;entryDy=0;entryPerimeter=0;exitPerimeter=0;" edge="1" parent="WIyWlLk6GJQsqaUBKTNV-1" source="7j4fDjFhmviyfLZyXL8e-9" target="7j4fDjFhmviyfLZyXL8e-13">
          <mxGeometry x="-0.1285" y="7" relative="1" as="geometry">
            <mxPoint x="289.6700000000001" y="594" as="sourcePoint" />
            <mxPoint x="289.6700000000001" y="680" as="targetPoint" />
            <mxPoint as="offset" />
          </mxGeometry>
        </mxCell>
        <mxCell id="7j4fDjFhmviyfLZyXL8e-28" value="1" style="edgeLabel;html=1;align=center;verticalAlign=middle;resizable=0;points=[];" vertex="1" connectable="0" parent="7j4fDjFhmviyfLZyXL8e-27">
          <mxGeometry x="-0.7171" y="2" relative="1" as="geometry">
            <mxPoint x="8" as="offset" />
          </mxGeometry>
        </mxCell>
        <mxCell id="7j4fDjFhmviyfLZyXL8e-29" value="1" style="endArrow=open;html=1;endSize=12;startArrow=diamondThin;startSize=14;startFill=0;edgeStyle=orthogonalEdgeStyle;align=left;verticalAlign=bottom;rounded=0;exitX=0.5;exitY=0;exitDx=0;exitDy=0;entryX=0.471;entryY=1;entryDx=0;entryDy=0;entryPerimeter=0;" edge="1" parent="WIyWlLk6GJQsqaUBKTNV-1" source="7j4fDjFhmviyfLZyXL8e-12" target="7j4fDjFhmviyfLZyXL8e-19">
          <mxGeometry x="0.7674" y="10" relative="1" as="geometry">
            <mxPoint x="299.6700000000001" y="604" as="sourcePoint" />
            <mxPoint x="525" y="530" as="targetPoint" />
            <mxPoint as="offset" />
          </mxGeometry>
        </mxCell>
        <mxCell id="7j4fDjFhmviyfLZyXL8e-30" value="1" style="edgeLabel;html=1;align=center;verticalAlign=middle;resizable=0;points=[];" vertex="1" connectable="0" parent="7j4fDjFhmviyfLZyXL8e-29">
          <mxGeometry x="-0.7171" y="2" relative="1" as="geometry">
            <mxPoint x="8" as="offset" />
          </mxGeometry>
        </mxCell>
      </root>
    </mxGraphModel>
  </diagram>
</mxfile>
